<?xml version="1.0" encoding="UTF-8"?>
<svg width="752pt" height="752pt" version="1.1" viewBox="0 0 752 752" xmlns="http://www.w3.org/2000/svg">
 <g>
  <path d="m375.53 404.42c44.516 0 80.508-35.992 80.508-80.508s-35.992-80.508-80.508-80.508-80.508 35.992-80.508 80.508 36.465 80.508 80.508 80.508zm0-146.34c36.465 0 66.301 29.836 66.301 66.301s-29.836 66.301-66.301 66.301-66.301-29.836-66.301-66.301 29.836-66.301 66.301-66.301z"/>
  <path d="m156.26 391.63c0 2.8398 0.47266 5.2109 0.47266 7.5781 0 1.4219 0.47266 3.3164 0.47266 4.7344 0.94531 2.8438 0.94531 4.7383 1.4219 7.1055 0.47266 1.8945 0.47266 3.7891 0.94531 5.6836 0.47266 1.8945 0.94531 3.7891 0.94531 5.6836 0.47266 1.8945 0.94531 4.2617 1.4219 6.1562 0.47266 1.4219 0.94531 3.3164 1.4219 4.7344 0.47266 2.3672 1.4219 4.2617 1.8945 6.6289 0.47266 1.4219 0.94531 2.3672 0.94531 3.7891 0.94531 2.3672 1.8945 5.2109 2.3672 7.5781 0.47266 0.47266 0.47266 1.4219 0.94531 1.8945 13.262 35.992 35.992 68.195 66.773 93.297l7.1055 5.6836v-0.47266c36.938 27.941 82.875 44.516 132.6 44.516 51.148 0 98.031-17.523 135.45-46.41v0.47266l7.1055-6.1562c1.4219-1.4219 2.8398-2.3672 4.2617-3.7891 0.47266-0.47266 1.4219-0.94531 1.8945-1.4219 1.8945-1.8945 4.2617-3.7891 6.1562-5.6836 0.47266-0.47266 0.94531-0.94531 1.4219-1.4219 1.8945-1.8945 4.2617-4.2617 6.1562-6.6289 0.47266-0.47266 0.94531-0.94531 0.94531-1.4219 1.8945-2.3672 4.2617-4.7344 6.1562-7.1055v-0.47266c8.5234-10.418 16.102-21.312 22.258-33.152 0.47266-0.94531 0.94531-1.4219 1.4219-2.3672 0.94531-1.8945 1.8945-3.7891 3.3164-6.1562 0.94531-1.4219 1.4219-2.8398 1.8945-4.2617 0.94531-1.8945 1.4219-3.3164 2.3672-5.2109s1.4219-3.7891 2.3672-5.2109c0.47266-1.4219 1.4219-3.3164 1.8945-4.7344 0.94531-1.8945 1.4219-4.2617 2.3672-6.1562 0.47266-1.4219 0.94531-2.8398 1.4219-4.2617 0.94531-2.3672 1.4219-4.7344 2.3672-7.1055 0.47266-1.4219 0.94531-2.3672 0.94531-3.7891 0.47266-2.3672 1.4219-5.2109 1.8945-7.5781 0.47266-1.4219 0.47266-2.3672 0.94531-3.7891 0.47266-2.8398 0.94531-5.2109 1.4219-8.0508 0-0.94531 0.47266-2.3672 0.47266-3.3164 0.47266-2.8398 0.94531-5.6836 0.94531-8.0508 0-0.94531 0.47266-2.3672 0.47266-3.3164 0.47266-2.8398 0.47266-5.6836 0.94531-8.5234v-2.8398c0-3.7891 0.47266-8.0508 0.47266-11.84 0.48438-121.7-98.492-220.68-219.73-220.68-121.23 0-220.21 98.98-220.21 220.21 0 3.7891 0 8.0508 0.47266 11.84 0.003907 1.4219 0.003907 2.8438 0.003907 3.7891zm93.766 146.81c26.992-54.934 75.773-89.035 127.87-89.035 51.621 0 99.926 33.152 126.92 87.141-35.52 28.414-80.035 45.465-128.81 45.465-47.355-0.003907-91.398-16.105-125.97-43.57zm125.97-368.45c113.66 0 206.01 92.352 206.01 206.01 0 3.7891 0 7.1055-0.47266 10.891v0.94531c0 3.3164-0.47266 6.6289-0.94531 9.4727v0.94531c-0.47266 3.3164-0.94531 6.6289-1.4219 9.9453v0.94531c-0.47266 3.3164-0.94531 6.1562-1.8945 9.4727 0 0.47266 0 0.94531-0.47266 1.4219-0.47266 2.8398-1.4219 5.6836-1.8945 8.5234 0 0.94531-0.47266 1.4219-0.47266 2.3672-0.47266 2.3672-1.4219 5.2109-2.3672 7.5781-0.47266 0.94531-0.94531 2.3672-0.94531 3.3164-0.94531 1.8945-1.4219 4.2617-2.3672 6.1562-0.47266 1.4219-0.94531 2.8398-1.8945 4.2617-0.47266 1.8945-1.4219 3.3164-1.8945 5.2109-0.94531 1.8945-1.4219 3.3164-2.3672 5.2109-0.47266 1.4219-1.4219 2.8398-1.8945 4.2617-0.94531 1.8945-1.8945 3.7891-2.8398 5.6836-0.47266 0.94531-0.94531 1.8945-1.4219 3.3164-0.94531 1.8945-2.3672 4.2617-3.7891 6.1562-0.47266 0.94531-0.94531 1.4219-1.4219 2.3672-1.4219 2.3672-2.8398 4.2617-4.2617 6.6289-0.47266 0.47266-0.94531 1.4219-1.4219 1.8945-1.4219 2.3672-3.3164 4.2617-4.7344 6.6289-0.47266 0.47266-0.47266 0.94531-0.94531 1.4219-1.8945 2.3672-3.3164 4.2617-5.2109 6.6289l-0.94531 0.94531c-1.8945 2.3672-3.7891 4.2617-5.6836 6.6289 0 0.47266-0.47266 0.47266-0.47266 0.94531-1.8945 2.3672-4.2617 4.2617-6.1562 6.6289l-5.6836 5.6836c-29.836-56.828-82.402-91.402-138.29-91.402-56.828 0-109.4 35.992-139.23 93.77-22.258-19.891-40.254-44.988-52.094-72.93 0 0 0-0.47266-0.47266-0.47266-0.94531-2.8398-2.3672-5.6836-3.3164-8.5234 0-0.47266-0.47266-0.94531-0.47266-1.4219-0.94531-2.3672-1.8945-5.2109-2.8398-7.5781-0.47266-0.94531-0.47266-1.8945-0.94531-2.8398-0.011719-4.2539-0.95703-6.6211-1.4297-8.9922-0.47266-1.4219-0.47266-2.3672-0.94531-3.7891-0.47266-1.8945-0.94531-4.2617-1.4219-6.1562-0.47266-1.4219-0.47266-3.3164-0.94531-4.7344-0.47266-1.8945-0.47266-3.7891-0.94531-5.6836-0.47266-1.8945-0.47266-3.7891-0.94531-5.6836 0-1.4219-0.47266-2.8398-0.47266-4.7344-0.47266-2.3672-0.47266-4.7344-0.47266-7.1055 0-0.94531 0-2.3672-0.47266-3.3164 0-3.7891-0.47266-7.1055-0.47266-10.891 0.46094-113.66 92.812-206.01 206.47-206.01z"/>
 </g>
</svg>
